<?xml version="1.0" encoding="utf-8"?>
<!-- Generator: Adobe Illustrator 17.1.0, SVG Export Plug-In . SVG Version: 6.00 Build 0)  -->
<!DOCTYPE svg PUBLIC "-//W3C//DTD SVG 1.1//EN" "http://www.w3.org/Graphics/SVG/1.1/DTD/svg11.dtd">
<svg version="1.1" id="Ebene_1" xmlns="http://www.w3.org/2000/svg" xmlns:xlink="http://www.w3.org/1999/xlink" x="0px" y="0px"
	 viewBox="0 0 150 70" enable-background="new 0 0 150 70" xml:space="preserve">
<rect fill="#FF0000" width="150" height="70"/>
<g>
	<path fill="#FFFFFF" d="M50.5,25.4h-6v7.7h4v4.4h-4v12.8h-4.3V21h10.3V25.4z"/>
	<path fill="#FFFFFF" d="M51,50.4L55.5,21h5.3l4.4,29.4H61l-0.8-6H56l-0.8,6H51z M58.4,30.6l-0.1-0.8H58l-0.1,0.8l-1.2,9.3h3
		L58.4,30.6z"/>
	<path fill="#FFFFFF" d="M67.2,21h4.3v29.4h-4.3V21z"/>
	<path fill="#FFFFFF" d="M74.7,21H79v25.4h5.7v4h-10V21z"/>
	<path fill="#FFFFFF" d="M86.5,21h9.9v4.4h-5.6v7.7h4v4.7h-4V46h5.6v4.4h-9.9V21z"/>
	<path fill="#FFFFFF" d="M98.8,50.4V21h3.4c4,0,6.2,0.8,7.3,3c1.1,2.2,1.3,5.9,1.3,11.7s-0.2,9.4-1.3,11.6c-1.2,2.2-3.3,3-7.3,3
		H98.8z M103.1,46.1c1.5,0,2.3-0.2,2.8-1.6c0.2-0.7,0.4-1.7,0.4-3.1c0-1.4,0-3.3,0-5.7c0-2.4,0-4.3,0-5.7c0-1.4-0.2-2.4-0.4-3.1
		c-0.4-1.4-1.3-1.6-2.8-1.6V46.1z"/>
</g>
</svg>
