<?xml version="1.0" encoding="utf-8"?>
<!-- Generator: Adobe Illustrator 17.1.0, SVG Export Plug-In . SVG Version: 6.00 Build 0)  -->
<!DOCTYPE svg PUBLIC "-//W3C//DTD SVG 1.1//EN" "http://www.w3.org/Graphics/SVG/1.1/DTD/svg11.dtd">
<svg version="1.1" id="Ebene_1" xmlns="http://www.w3.org/2000/svg" xmlns:xlink="http://www.w3.org/1999/xlink" x="0px" y="0px"
	 viewBox="0 0 150 70" enable-background="new 0 0 150 70" xml:space="preserve">
<rect fill="#808080" width="150" height="70"/>
<g>
	<path fill="#FFFFFF" d="M31.7,35.1l-0.4-1.4h-0.2v16.7h-4V21H31l4.2,15.3l0.4,1.4h0.2V21h4v29.4h-3.8L31.7,35.1z"/>
	<path fill="#FFFFFF" d="M54.2,44.4c0,1.2-0.3,2.3-0.7,3.2c-0.4,0.8-0.9,1.6-1.7,2.2c-0.8,0.6-1.9,1-3.3,1c-1.4,0-2.6-0.4-3.4-1
		c-0.8-0.6-1.3-1.4-1.7-2.2c-0.4-0.9-0.7-2-0.7-3.2V27c0-1.2,0.3-2.2,0.7-3.2c0.4-0.8,0.9-1.6,1.7-2.2c0.8-0.6,1.9-1,3.4-1
		c1.4,0,2.5,0.4,3.3,1c0.8,0.6,1.4,1.4,1.7,2.2c0.4,0.9,0.7,2,0.7,3.2V44.4z M49.9,27c0-0.8-0.2-1.4-0.6-1.8
		c-0.2-0.2-0.5-0.3-0.9-0.3c-0.8,0-1.1,0.6-1.3,1.1C47.1,26.3,47,26.6,47,27v17.3c0,0.8,0.2,1.4,0.6,1.8c0.2,0.2,0.5,0.3,0.8,0.3
		c0.8,0,1.1-0.5,1.3-1.1c0.1-0.3,0.2-0.6,0.2-1.1V27z"/>
	<path fill="#FFFFFF" d="M63.3,50.4V21h3.8c2.6,0,4.6,0.5,5.9,1.7c1.3,1.2,2,3.2,2,6.1c0,1.4-0.1,2.4-0.6,3.4
		c-0.4,1-1.1,1.8-2.1,2.7c1.1,0.6,1.9,1.7,2.5,3.6c0.3,0.9,0.5,2.1,0.5,3.6c0,2.2-0.4,4.2-1.4,5.7s-2.7,2.5-5.3,2.6H63.3z
		 M67.6,33.1c0.4,0,1.2,0,1.9-0.4c0.7-0.5,1.3-1.4,1.3-3.5c0-2-0.6-3-1.3-3.5c-0.7-0.5-1.6-0.4-1.9-0.4V33.1z M67.6,46.1
		c0.4,0,1.2,0.1,1.9-0.4c0.7-0.5,1.3-1.7,1.3-4.1c0-2.4-0.6-3.6-1.3-4.1c-0.7-0.5-1.6-0.4-1.9-0.4V46.1z"/>
	<path fill="#FFFFFF" d="M89.3,21v23.4c0,1.2-0.3,2.3-0.7,3.2c-0.4,0.8-0.9,1.6-1.7,2.2c-0.8,0.6-1.9,1-3.3,1c-1.4,0-2.6-0.4-3.4-1
		c-0.8-0.6-1.3-1.4-1.7-2.2c-0.4-0.9-0.7-2-0.7-3.2V21h4.3v23.4c0,0.8,0.2,1.4,0.6,1.8c0.2,0.2,0.5,0.3,0.8,0.3
		c0.8,0,1.1-0.5,1.3-1.1c0.1-0.3,0.2-0.6,0.2-1.1V21H89.3z"/>
	<path fill="#FFFFFF" d="M92.5,21h4.3v29.4h-4.3V21z"/>
	<path fill="#FFFFFF" d="M100,21h4.3v25.4h5.7v4h-10V21z"/>
	<path fill="#FFFFFF" d="M111.8,50.4V21h3.4c4,0,6.2,0.8,7.3,3c1.1,2.2,1.3,5.9,1.3,11.7s-0.2,9.4-1.3,11.6c-1.2,2.2-3.3,3-7.3,3
		H111.8z M116.1,46.1c1.5,0,2.3-0.2,2.8-1.6c0.2-0.7,0.4-1.7,0.4-3.1c0-1.4,0-3.3,0-5.7c0-2.4,0-4.3,0-5.7c0-1.4-0.2-2.4-0.4-3.1
		c-0.4-1.4-1.3-1.6-2.8-1.6V46.1z"/>
</g>
</svg>
